<?xml version="1.0" encoding="UTF-8" standalone="no"?>
<svg
   xmlns:dc="http://purl.org/dc/elements/1.1/"
   xmlns:cc="http://creativecommons.org/ns#"
   xmlns:rdf="http://www.w3.org/1999/02/22-rdf-syntax-ns#"
   xmlns:svg="http://www.w3.org/2000/svg"
   xmlns="http://www.w3.org/2000/svg"
   xmlns:sodipodi="http://sodipodi.sourceforge.net/DTD/sodipodi-0.dtd"
   xmlns:inkscape="http://www.inkscape.org/namespaces/inkscape"
   sodipodi:docname="anchor.svg"
   id="svg6"
   version="1.1"
   viewBox="0 0 32 32"
   inkscape:version="0.92.2 5c3e80d, 2017-08-06"
   width="32"
   height="32">
  <metadata
     id="metadata10">
    <rdf:RDF>
      <cc:Work
         rdf:about="">
        <dc:format>image/svg+xml</dc:format>
        <dc:type
           rdf:resource="http://purl.org/dc/dcmitype/StillImage" />
        <dc:title></dc:title>
      </cc:Work>
    </rdf:RDF>
  </metadata>
  <sodipodi:namedview
     inkscape:current-layer="svg6"
     inkscape:window-maximized="1"
     inkscape:window-y="0"
     inkscape:window-x="1920"
     inkscape:cy="16"
     inkscape:cx="16"
     inkscape:zoom="26.6875"
     showgrid="false"
     id="namedview8"
     inkscape:window-height="1051"
     inkscape:window-width="1920"
     inkscape:pageshadow="2"
     inkscape:pageopacity="0"
     guidetolerance="10"
     gridtolerance="10"
     objecttolerance="10"
     borderopacity="1"
     bordercolor="#666666"
     pagecolor="#ffffff" />
  <defs
     id="defs3051">
    <style
       type="text/css"
       id="current-color-scheme">
      .ColorScheme-Text {
        color:#eff0f1;
      }
      </style>
  </defs>
  <path
     style="fill:#000000;stroke-width:0.17547871"
     d="M 12.791661,31.638803 C 9.0204359,30.693895 5.6570234,28.30713 3.3295788,24.92426 L 2.6511258,23.938154 1.8441086,24.39672 c -0.4438592,0.252214 -0.88255118,0.45857 -0.97487074,0.45857 -0.21459271,0 -0.87889557,-1.446834 -0.76182687,-1.659241 0.0739986,-0.134246 5.00373481,-3.17209 5.14760981,-3.17209 0.082983,0 0.9402831,1.699198 0.8813215,1.746813 -0.03082,0.02489 -0.4288904,0.281419 -0.8846,0.570068 -0.4557093,0.288645 -0.8561288,0.550456 -0.8898212,0.581795 -0.033691,0.03133 0.2213292,0.488658 0.5667145,1.016259 1.873057,2.861234 5.6874704,5.278352 9.2301544,5.848966 l 0.787134,0.126775 v -7.91847 -7.918468 h -2.154263 -2.154262 v -1.022006 -1.022012 h 2.154262 2.154263 V 9.9944252 7.9551725 L 14.407358,7.6499334 c -1.290995,-0.7316872 -1.999603,-2.00975 -1.999603,-3.6065349 0,-2.2817641 1.486394,-3.93939467 3.532443,-3.93939467 3.786597,0 4.928496,5.62139967 1.53284,7.54592957 l -0.538565,0.3052391 v 2.0392527 2.0392538 h 2.154261 2.154263 v 1.022012 1.022012 h -2.154263 -2.154261 v 7.918469 7.918468 l 0.787135,-0.126775 c 3.457015,-0.556814 6.978638,-2.729815 9.054056,-5.586765 0.420425,-0.578738 0.764409,-1.114921 0.764409,-1.191509 0,-0.07659 -0.391496,-0.374403 -0.869992,-0.661806 -0.478494,-0.287403 -0.895206,-0.544986 -0.926027,-0.572406 -0.06502,-0.05784 0.801886,-1.751416 0.896513,-1.751416 0.149714,0 5.057541,3.036238 5.134996,3.17677 0.126799,0.230066 -0.563349,1.654929 -0.800323,1.652324 -0.112085,-0.0013 -0.537898,-0.216385 -0.94627,-0.478117 l -0.742493,-0.475883 -0.498273,0.710396 c -2.360192,3.364961 -5.327252,5.669466 -8.705194,6.761294 -1.630563,0.52703 -5.665692,0.675383 -7.291349,0.268061 z M 17.16421,5.3396774 c 0.667964,-0.7232729 0.672397,-1.8320707 0.01047,-2.606862 -0.671457,-0.7858922 -1.797419,-0.7858922 -2.468876,0 -0.650312,0.7611435 -0.653739,1.8560098 -0.0081,2.6115952 0.745943,0.8730738 1.657564,0.8713243 2.466627,-0.00478 z"
     id="path12"
     inkscape:connector-curvature="0" />
</svg>
