/* XPM */
static const char *xpmDiagram22x22[] = {
/* columns rows colors chars-per-pixel */
"22 22 7 1",
"  c black",
". c #545454",
"X c #696969",
"o c #7b7b7b",
"O c #ff0002",
"+ c white",
"@ c None",
/* pixels */
"@@@@@@@@@@@@@@o..... @",
"@@@@@@@@@@@@@@.+++++ @",
"@@@@@@@@@@@@@@.+++++ @",
"@@@@@@@@@@@@@@.+++++ @",
"@@@@@@@@@@@@@@.+++++ @",
"@@@@@@@@@@@@@@.+OOO+ @",
"@@@@@@@@@@@@@@  OOO  @",
"@@@@@@@@@@@@@@@@OOO@@@",
"@@@@@@@@@@@@@@@@ + @@@",
"@@@@@@@@@@@@@@@@ + @@@",
"@@@             X+ @@@",
"@@@ ++++++++++++++ @@@",
"@@@ +X             @@@",
"@@@ + @@@@@@@@@@@@@@@@",
"@@@OOO@@@@@@@@@@@@@@@@",
"@o.OOO. @@@@@@@@@@@@@@",
"@.+OOO+ @@@@@@@@@@@@@@",
"@.+++++ @@@@@@@@@@@@@@",
"@.+++++ @@@@@@@@@@@@@@",
"@.+++++ @@@@@@@@@@@@@@",
"@.+++++ @@@@@@@@@@@@@@",
"@       @@@@@@@@@@@@@@"
};
