/* XPM */
static const char *xpmDiagram32x32[] = {
/* columns rows colors chars-per-pixel */
"32 32 11 1",
"  c black",
". c #484848",
"X c #545454",
"o c #696969",
"O c #7b7b7b",
"+ c #ff0003",
"@ c #d0d0d0",
"# c #dcdcdc",
"$ c #f4f4f4",
"% c white",
"& c None",
/* pixels */
"&&&&&&&&&&&&&&&&&&&&&&&&&&&&&&&&",
"&&&&&&&&&&&&&&&&&&&&OXXXXXXX &&&",
"&&&&&&&&&&&&&&&&&&&&X%%%%%%% &&&",
"&&&&&&&&&&&&&&&&&&&&X%%%%%%% &&&",
"&&&&&&&&&&&&&&&&&&&&X%%%%%%% &&&",
"&&&&&&&&&&&&&&&&&&&&X%%%%%%% &&&",
"&&&&&&&&&&&&&&&&&&&&X%%%%%%% &&&",
"&&&&&&&&&&&&&&&&&&&&X%%%%%%% &&&",
"&&&&&&&&&&&&&&&&&&&&X%$#@#$% &&&",
"&&&&&&&&&&&&&&&&&&&&   +++   &&&",
"&&&&&&&&&&&&&&&&&&&&&& +++ &&&&&",
"&&&&&&&&&&&&&&&&&&&&&& +++ &&&&&",
"&&&&&&&&&&&&&&&&&&&&&&  @  &&&&&",
"&&&&&&&&&&&&&&&&&&&&&&& % &&&&&&",
"&&&&&&&&&&&&&&&&&&&&&&& % &&&&&&",
"&&&&&&                 o% &&&&&&",
"&&&&&& %%%%%%%%%%%%%%%%%% &&&&&&",
"&&&&&& $o                 &&&&&&",
"&&&&&& % &&&&&&&&&&&&&&&&&&&&&&&",
"&&&&&  @  &&&&&&&&&&&&&&&&&&&&&&",
"&&&&& +++ &&&&&&&&&&&&&&&&&&&&&&",
"&&&&& +++ &&&&&&&&&&&&&&&&&&&&&&",
"&&&OX.+++.X &&&&&&&&&&&&&&&&&&&&",
"&&&X%$#@#$% &&&&&&&&&&&&&&&&&&&&",
"&&&X%%%%%%% &&&&&&&&&&&&&&&&&&&&",
"&&&X%%%%%%% &&&&&&&&&&&&&&&&&&&&",
"&&&X%%%%%%% &&&&&&&&&&&&&&&&&&&&",
"&&&X%%%%%%% &&&&&&&&&&&&&&&&&&&&",
"&&&X%%%%%%% &&&&&&&&&&&&&&&&&&&&",
"&&&X%%%%%%% &&&&&&&&&&&&&&&&&&&&",
"&&&         &&&&&&&&&&&&&&&&&&&&",
"&&&&&&&&&&&&&&&&&&&&&&&&&&&&&&&&"
};
