/* XPM */
static const char *xpmDiagram48x48[] = {
/* columns rows colors chars-per-pixel */
"48 48 16 1",
"  c black",
". c #404040",
"X c #535353",
"o c #666666",
"O c #696969",
"+ c #ff0007",
"@ c #808080",
"# c #919191",
"$ c #9c9c9c",
"% c #a7a7a7",
"& c #c1c1c1",
"* c #d0d0d0",
"= c #dcdcdc",
"- c #f5f5f5",
"; c white",
": c None",
/* pixels */
"::::::::::::::::::::::::::::::::::::::::::::::::",
"::::::::::::::::::::::::::::::::::::::::::::::::",
":::::::::::::::::::::::::::::::$@ooooooooo. ::::",
":::::::::::::::::::::::::::::::@;;;;;;;;;;- ::::",
":::::::::::::::::::::::::::::::o;;;;;;;;;;& ::::",
":::::::::::::::::::::::::::::::o;;;;;;;;;;& ::::",
":::::::::::::::::::::::::::::::o;;;;;;;;;;& ::::",
":::::::::::::::::::::::::::::::o;;;;;;;;;;& ::::",
":::::::::::::::::::::::::::::::o;;;;;;;;;;& ::::",
":::::::::::::::::::::::::::::::o;;;;;;;;;;& ::::",
":::::::::::::::::::::::::::::::o;;;;;;;;;;& ::::",
":::::::::::::::::::::::::::::::o;;;;;;;;;;& ::::",
":::::::::::::::::::::::::::::::o;;;-=*=-;;& ::::",
":::::::::::::::::::::::::::::::.-&&%+++%&&# ::::",
":::::::::::::::::::::::::::::::     +++     ::::",
"::::::::::::::::::::::::::::::::::: +++ ::::::::",
":::::::::::::::::::::::::::::::::::     ::::::::",
":::::::::::::::::::::::::::::::::::: ; :::::::::",
":::::::::::::::::::::::::::::::::::: ; :::::::::",
":::::::::::::::::::::::::::::::::::: ; :::::::::",
":::::::::::::::::::::::::::::::::::: ; :::::::::",
":::::::::::::::::::::::::::::::::::: ; :::::::::",
":::::::::                           O; :::::::::",
"::::::::: ;;;;;;;;;;;;;;;;;;;;;;;;;;;; :::::::::",
"::::::::: ;O                           :::::::::",
"::::::::: ; ::::::::::::::::::::::::::::::::::::",
"::::::::: ; ::::::::::::::::::::::::::::::::::::",
"::::::::: ; ::::::::::::::::::::::::::::::::::::",
"::::::::: ; ::::::::::::::::::::::::::::::::::::",
"::::::::: ; ::::::::::::::::::::::::::::::::::::",
"::::::::: ; ::::::::::::::::::::::::::::::::::::",
"::::::::     :::::::::::::::::::::::::::::::::::",
":::::::: +++ :::::::::::::::::::::::::::::::::::",
"::::$@ooX+++Xoo. :::::::::::::::::::::::::::::::",
"::::@;;;=+++=;;- :::::::::::::::::::::::::::::::",
"::::o;;;-=*=-;;& :::::::::::::::::::::::::::::::",
"::::o;;;;;;;;;;& :::::::::::::::::::::::::::::::",
"::::o;;;;;;;;;;& :::::::::::::::::::::::::::::::",
"::::o;;;;;;;;;;& :::::::::::::::::::::::::::::::",
"::::o;;;;;;;;;;& :::::::::::::::::::::::::::::::",
"::::o;;;;;;;;;;& :::::::::::::::::::::::::::::::",
"::::o;;;;;;;;;;& :::::::::::::::::::::::::::::::",
"::::o;;;;;;;;;;& :::::::::::::::::::::::::::::::",
"::::o;;;;;;;;;;& :::::::::::::::::::::::::::::::",
"::::.-&&&&&&&&&# :::::::::::::::::::::::::::::::",
"::::             :::::::::::::::::::::::::::::::",
"::::::::::::::::::::::::::::::::::::::::::::::::",
"::::::::::::::::::::::::::::::::::::::::::::::::"
};
