/* XPM */
static char *Ellipse_xpm[]={
"48 48 111 2",
"Qt c None",
".A c #000000",
".W c #010101",
".z c #161616",
".S c #1f1f1f",
".y c #363636",
".P c #3d3d3d",
"#f c #414141",
".x c #424242",
".u c #4c4c4c",
".6 c #4d4d4d",
"#S c #4e4e4e",
".t c #4f4f4f",
"#H c #535353",
".0 c #545454",
".M c #585858",
"#s c #5b5b5b",
".r c #5d5d5d",
".p c #5e5e5e",
"#z c #616161",
"#R c #636363",
".q c #646464",
"#I c #656565",
".j c #666666",
"#P c #686868",
".f c #6b6b6b",
"## c #6d6d6d",
"#Q c #6e6e6e",
".J c #707070",
".k c #717171",
".l c #737373",
"#J c #747474",
"#m c #767676",
"#G c #777777",
".e c #797979",
".3 c #7a7a7a",
"#e c #7b7b7b",
".G c #7c7c7c",
".V c #7d7d7d",
"#t c #7f7f7f",
"#O c #808080",
".D c #828282",
"#A c #838383",
".d c #858585",
".c c #8b8b8b",
".b c #909090",
"#n c #919191",
"#r c #949494",
".h c #979797",
"#F c #999999",
".a c #9a9a9a",
".o c #9b9b9b",
".g c #9d9d9d",
"#u c #9e9e9e",
".n c #a1a1a1",
".# c #a2a2a2",
".w c #a3a3a3",
".Z c #a4a4a4",
".m c #a6a6a6",
".s c #a8a8a8",
".v c #a9a9a9",
"#g c #b0b0b0",
".O c #b4b4b4",
"#B c #b6b6b6",
"#l c #b9b9b9",
"#y c #bababa",
"#v c #bbbbbb",
"#. c #bebebe",
".L c #c1c1c1",
"#o c #c2c2c2",
"#q c #c3c3c3",
"#d c #c6c6c6",
"#N c #c7c7c7",
"#K c #c8c8c8",
".U c #c9c9c9",
"#a c #cacaca",
".2 c #cbcbcb",
"#L c #cdcdcd",
"#M c #cecece",
"#w c #d2d2d2",
"#x c #d4d4d4",
".F c #d6d6d6",
"#C c #d7d7d7",
"#b c #dbdbdb",
"#E c #dcdcdc",
".R c #dddddd",
"#p c #dfdfdf",
"#h c #e1e1e1",
"#k c #e2e2e2",
".I c #e3e3e3",
".Y c #e5e5e5",
"#D c #e6e6e6",
".N c #e8e8e8",
".7 c #e9e9e9",
".K c #eaeaea",
".4 c #ececec",
"#c c #eeeeee",
".C c #efefef",
".B c #f1f1f1",
"#i c #f2f2f2",
".E c #f3f3f3",
".8 c #f4f4f4",
"#j c #f5f5f5",
".T c #f6f6f6",
".1 c #f8f8f8",
".5 c #fafafa",
".9 c #fbfbfb",
".H c #fcfcfc",
".X c #fdfdfd",
".Q c #fefefe",
".i c #ffffff",
"QtQtQtQtQtQtQtQtQtQtQtQtQtQtQtQtQtQtQtQtQtQtQtQtQtQtQtQtQtQtQtQtQtQtQtQtQtQtQtQtQtQtQtQtQtQtQtQt",
"QtQtQtQtQtQtQtQtQtQtQtQtQtQtQtQtQtQtQtQtQtQtQtQtQtQtQtQtQtQtQtQtQtQtQtQtQtQtQtQtQtQtQtQtQtQtQtQt",
"QtQtQtQtQtQtQtQtQtQtQtQtQtQtQtQtQtQtQtQtQtQtQtQtQtQtQtQtQtQtQtQtQtQtQtQtQtQtQtQtQtQtQtQtQtQtQtQt",
"QtQtQtQtQtQtQtQtQtQtQtQtQtQtQtQtQtQtQtQtQtQtQtQtQtQtQtQtQtQtQtQtQtQtQtQtQtQtQtQtQtQtQtQtQtQtQtQt",
"QtQtQtQtQtQtQtQtQtQtQtQtQtQtQtQtQtQtQtQtQtQtQtQtQtQtQtQtQtQtQtQtQtQtQtQtQtQtQtQtQtQtQtQtQtQtQtQt",
"QtQtQtQtQtQtQtQtQtQtQtQtQtQtQtQtQtQtQtQtQtQtQtQtQtQtQtQtQtQtQtQtQtQtQtQtQtQtQtQtQtQtQtQtQtQtQtQt",
"QtQtQtQtQtQtQtQtQtQtQtQtQtQtQtQtQtQtQtQtQtQtQtQtQtQtQtQtQtQtQtQtQtQtQtQtQtQtQtQtQtQtQtQtQtQtQtQt",
"QtQtQtQtQtQtQtQtQtQtQtQtQtQtQtQtQtQtQtQtQtQtQtQtQtQtQtQtQtQtQtQtQtQtQtQtQtQtQtQtQtQtQtQtQtQtQtQt",
"QtQtQtQtQtQtQtQtQtQtQtQtQtQtQtQtQtQtQtQtQtQtQtQtQtQtQtQtQtQtQtQtQtQtQtQtQtQtQtQtQtQtQtQtQtQtQtQt",
"QtQtQtQtQtQtQtQtQtQtQtQtQtQtQtQtQtQtQtQtQtQtQtQtQtQtQtQtQtQtQtQtQtQtQtQtQtQtQtQtQtQtQtQtQtQtQtQt",
"QtQtQtQtQtQtQtQtQtQtQtQtQtQtQtQtQtQtQt.#.a.b.c.c.c.c.c.d.e.fQtQtQtQtQtQtQtQtQtQtQtQtQtQtQtQtQtQt",
"QtQtQtQtQtQtQtQtQtQtQtQtQtQtQt.#.g.a.h.i.i.i.i.i.i.i.i.i.i.i.j.k.l.fQtQtQtQtQtQtQtQtQtQtQtQtQtQt",
"QtQtQtQtQtQtQtQtQtQtQtQt.m.n.o.i.i.i.i.i.i.i.i.i.i.i.i.i.i.i.i.i.i.i.p.q.rQtQtQtQtQtQtQtQtQtQtQt",
"QtQtQtQtQtQtQtQtQtQt.s.n.i.i.i.i.i.i.i.i.i.i.i.i.i.i.i.i.i.i.i.i.i.i.i.i.i.t.uQtQtQtQtQtQtQtQtQt",
"QtQtQtQtQtQtQtQt.v.w.i.i.i.i.i.i.i.i.i.i.i.i.i.i.i.i.i.i.i.i.i.i.i.i.i.i.i.i.i.x.yQtQtQtQtQtQtQt",
"QtQtQtQtQtQtQt.w.i.i.i.i.i.i.i.i.i.i.i.i.i.i.i.i.i.i.i.i.i.i.i.i.i.i.i.i.i.i.i.i.i.zQtQtQtQtQtQt",
"QtQtQtQtQtQt.g.i.i.i.i.i.i.i.i.i.i.i.i.i.i.i.i.i.i.i.i.i.i.i.i.i.i.i.i.i.i.i.i.i.i.i.AQtQtQtQtQt",
"QtQtQtQtQt.b.i.i.i.i.i.i.i.i.i.i.i.i.i.i.i.i.i.i.i.i.i.i.i.i.i.i.i.i.i.i.i.i.i.i.i.i.B.AQtQtQtQt",
"QtQtQtQtQt.d.i.i.i.i.i.i.i.i.i.i.i.i.i.i.i.i.i.i.i.i.i.i.i.i.i.i.i.i.i.i.i.i.i.i.i.i.C.AQtQtQtQt",
"QtQtQtQt.D.i.i.i.i.i.i.i.i.i.i.i.i.i.i.i.i.i.i.i.i.i.i.i.i.i.i.i.i.i.i.i.i.i.i.i.i.i.E.F.AQtQtQt",
"QtQtQtQt.G.i.i.i.i.i.i.i.i.i.i.i.i.i.i.i.i.i.i.i.i.i.i.i.i.i.i.i.i.i.i.i.i.i.i.i.i.i.H.I.AQtQtQt",
"QtQtQt.J.i.i.i.i.i.i.i.i.i.i.i.i.i.i.i.i.i.i.i.i.i.i.i.i.i.i.i.i.i.i.i.i.i.i.i.i.i.i.i.K.L.AQtQt",
"QtQtQt.M.i.i.i.i.i.i.i.i.i.i.i.i.i.i.i.i.i.i.i.i.i.i.i.i.i.i.i.i.i.i.i.i.i.i.i.i.i.i.i.N.O.AQtQt",
"QtQtQt.P.i.i.i.i.i.i.i.i.i.i.i.i.i.i.i.i.i.i.i.i.i.i.i.i.i.i.i.i.i.i.i.i.i.i.i.i.i.i.Q.R.g.AQtQt",
"QtQtQt.S.i.i.Q.i.i.i.i.i.i.i.i.i.i.i.i.i.i.i.i.i.i.i.i.i.i.i.i.i.i.i.i.i.i.i.i.i.i.i.T.U.V.AQtQt",
"QtQtQt.W.Q.i.X.Q.i.i.i.i.i.i.i.i.i.i.i.i.i.i.i.i.i.i.i.i.i.i.i.i.i.i.i.i.i.i.i.i.i.X.Y.Z.0.AQtQt",
"QtQtQtQt.A.1.Q.Q.i.i.i.i.i.i.i.i.i.i.i.i.i.i.i.i.i.i.i.i.i.i.i.i.i.i.i.i.i.i.i.i.i.T.2.3.AQtQtQt",
"QtQtQtQt.A.4.5.X.Q.i.i.i.i.i.i.i.i.i.i.i.i.i.i.i.i.i.i.i.i.i.i.i.i.i.i.i.i.i.i.i.X.Y.w.6.AQtQtQt",
"QtQtQtQtQt.A.7.8.9.Q.i.i.i.i.i.i.i.i.i.i.i.i.i.i.i.i.i.i.i.i.i.i.i.i.i.i.i.i.i.X.C#.##.AQtQtQtQt",
"QtQtQtQtQt.A#a#b#c.9.Q.i.i.i.i.i.i.i.i.i.i.i.i.i.i.i.i.i.i.i.i.i.i.i.i.i.i.i.X.C#d#e#f.AQtQtQtQt",
"QtQtQtQtQtQt.A#g#d#h#i.9.Q.i.i.i.i.i.i.i.i.i.i.i.i.i.i.i.i.i.i.i.i.i.i.i.X#j#k#l#m#f.AQtQtQtQtQt",
"QtQtQtQtQtQtQt.A#n.m#o#p#i.9.Q.i.i.i.i.i.i.i.i.i.i.i.i.i.i.i.i.i.i.i.X#j#k#q#r#s#f.AQtQtQtQtQtQt",
"QtQtQtQtQtQtQtQt.A.A#t#u#v#w.Y#i.9.Q.i.i.i.i.i.i.i.i.i.i.i.i.i.X#j.7#x#y.b#z#f.A.AQtQtQtQtQtQtQt",
"QtQtQtQtQtQtQtQtQtQt.A.A.J#A#u#B.2#C#D#i.9.Q.i.i.i.i.i.X#j.7#E.2#B#F#G#H#f.A.AQtQtQtQtQtQtQtQtQt",
"QtQtQtQtQtQtQtQtQtQtQtQt.A.A.A#I#J#A.g#B#K#L#M#M#M#M#M#N#B#F#O#P.t#f.A.A.AQtQtQtQtQtQtQtQtQtQtQt",
"QtQtQtQtQtQtQtQtQtQtQtQtQtQtQt.A.A.A.A#I#Q#Q.f.f.f.f.f#R#S#f.A.A.A.AQtQtQtQtQtQtQtQtQtQtQtQtQtQt",
"QtQtQtQtQtQtQtQtQtQtQtQtQtQtQtQtQtQtQt.A.A.A.A.A.A.A.A.A.A.AQtQtQtQtQtQtQtQtQtQtQtQtQtQtQtQtQtQt",
"QtQtQtQtQtQtQtQtQtQtQtQtQtQtQtQtQtQtQtQtQtQtQtQtQtQtQtQtQtQtQtQtQtQtQtQtQtQtQtQtQtQtQtQtQtQtQtQt",
"QtQtQtQtQtQtQtQtQtQtQtQtQtQtQtQtQtQtQtQtQtQtQtQtQtQtQtQtQtQtQtQtQtQtQtQtQtQtQtQtQtQtQtQtQtQtQtQt",
"QtQtQtQtQtQtQtQtQtQtQtQtQtQtQtQtQtQtQtQtQtQtQtQtQtQtQtQtQtQtQtQtQtQtQtQtQtQtQtQtQtQtQtQtQtQtQtQt",
"QtQtQtQtQtQtQtQtQtQtQtQtQtQtQtQtQtQtQtQtQtQtQtQtQtQtQtQtQtQtQtQtQtQtQtQtQtQtQtQtQtQtQtQtQtQtQtQt",
"QtQtQtQtQtQtQtQtQtQtQtQtQtQtQtQtQtQtQtQtQtQtQtQtQtQtQtQtQtQtQtQtQtQtQtQtQtQtQtQtQtQtQtQtQtQtQtQt",
"QtQtQtQtQtQtQtQtQtQtQtQtQtQtQtQtQtQtQtQtQtQtQtQtQtQtQtQtQtQtQtQtQtQtQtQtQtQtQtQtQtQtQtQtQtQtQtQt",
"QtQtQtQtQtQtQtQtQtQtQtQtQtQtQtQtQtQtQtQtQtQtQtQtQtQtQtQtQtQtQtQtQtQtQtQtQtQtQtQtQtQtQtQtQtQtQtQt",
"QtQtQtQtQtQtQtQtQtQtQtQtQtQtQtQtQtQtQtQtQtQtQtQtQtQtQtQtQtQtQtQtQtQtQtQtQtQtQtQtQtQtQtQtQtQtQtQt",
"QtQtQtQtQtQtQtQtQtQtQtQtQtQtQtQtQtQtQtQtQtQtQtQtQtQtQtQtQtQtQtQtQtQtQtQtQtQtQtQtQtQtQtQtQtQtQtQt",
"QtQtQtQtQtQtQtQtQtQtQtQtQtQtQtQtQtQtQtQtQtQtQtQtQtQtQtQtQtQtQtQtQtQtQtQtQtQtQtQtQtQtQtQtQtQtQtQt",
"QtQtQtQtQtQtQtQtQtQtQtQtQtQtQtQtQtQtQtQtQtQtQtQtQtQtQtQtQtQtQtQtQtQtQtQtQtQtQtQtQtQtQtQtQtQtQtQt"};
