/* XPM */
static const char *xpmEllipse16x16[]={
"16 16 3 1",
". c None",
"# c #000000",
"a c #ffffff",
"................",
"................",
"................",
"....#######.....",
"..##aaaaaaa##...",
".#aaaaaaaaaaa#..",
"#aaaaaaaaaaaaa#.",
"#aaaaaaaaaaaaa#.",
"#aaaaaaaaaaaaa#.",
".#aaaaaaaaaaa#..",
"..##aaaaaaa##...",
"....#######.....",
"................",
"................",
"................",
"................"};

