/* XPM */
static char * GLayout_xpm[] = {
"48 48 3 1",
" 	c none",
".	c #FFFF0000FFFF",
"X	c #FFFFFFFFFFFF",
"                                                ",
"                                                ",
"                                                ",
"                                                ",
"                                                ",
"                                                ",
"                                                ",
"                                                ",
"                                                ",
"                                                ",
"   ..........................................   ",
"   .XXXXXXXX.XXXXXXXXXX.XXXXXXXXX.XXXXXXXXXX.   ",
"   .XXXXXXXX.XXXXXXXXXX.XXXXXXXXX.XXXXXXXXXX.   ",
"   .XXXXXXXX.XXXXXXXXXX.XXXXXXXXX.XXXXXXXXXX.   ",
"   .XXXXXXXX.XXXXXXXXXX.XXXXXXXXX.XXXXXXXXXX.   ",
"   ..........................................   ",
"   .XXXXXXXX.XXXXXXXXXX.XXXXXXXXX.XXXXXXXXXX.   ",
"   .XXXXXXXX.XXXXXXXXXX.XXXXXXXXX.XXXXXXXXXX.   ",
"   .XXXXXXXX.XXXXXXXXXX.XXXXXXXXX.XXXXXXXXXX.   ",
"   .XXXXXXXX.XXXXXXXXXX.XXXXXXXXX.XXXXXXXXXX.   ",
"   .XXXXXXXX.XXXXXXXXXX.XXXXXXXXX.XXXXXXXXXX.   ",
"   .XXXXXXXX.XXXXXXXXXX.XXXXXXXXX.XXXXXXXXXX.   ",
"   ..........................................   ",
"   .XXXXXXXX.XXXXXXXXXX.XXXXXXXXX.XXXXXXXXXX.   ",
"   .XXXXXXXX.XXXXXXXXXX.XXXXXXXXX.XXXXXXXXXX.   ",
"   .XXXXXXXX.XXXXXXXXXX.XXXXXXXXX.XXXXXXXXXX.   ",
"   .XXXXXXXX.XXXXXXXXXX.XXXXXXXXX.XXXXXXXXXX.   ",
"   .XXXXXXXX.XXXXXXXXXX.XXXXXXXXX.XXXXXXXXXX.   ",
"   .XXXXXXXX.XXXXXXXXXX.XXXXXXXXX.XXXXXXXXXX.   ",
"   ..........................................   ",
"   .XXXXXXXX.XXXXXXXXXX.XXXXXXXXX.XXXXXXXXXX.   ",
"   .XXXXXXXX.XXXXXXXXXX.XXXXXXXXX.XXXXXXXXXX.   ",
"   .XXXXXXXX.XXXXXXXXXX.XXXXXXXXX.XXXXXXXXXX.   ",
"   .XXXXXXXX.XXXXXXXXXX.XXXXXXXXX.XXXXXXXXXX.   ",
"   .XXXXXXXX.XXXXXXXXXX.XXXXXXXXX.XXXXXXXXXX.   ",
"   .XXXXXXXX.XXXXXXXXXX.XXXXXXXXX.XXXXXXXXXX.   ",
"   .XXXXXXXX.XXXXXXXXXX.XXXXXXXXX.XXXXXXXXXX.   ",
"   ..........................................   ",
"                                                ",
"                                                ",
"                                                ",
"                                                ",
"                                                ",
"                                                ",
"                                                ",
"                                                ",
"                                                ",
"                                                "};
