/* XPM */
static char * HLayout_xpm[] = {
"48 48 3 1",
" 	c none",
".	c #FFFF0000FFFF",
"X	c #FFFFFFFFFFFF",
"                                                ",
"                                                ",
"                                                ",
"                                                ",
"                                                ",
"                                                ",
"                                                ",
"                                                ",
"                                                ",
"                                                ",
"   ..........................................   ",
"   .XXXXXXXX.XXXXXXXXX.XXXXXXXXXX.XXXXXXXXXX.   ",
"   .XXXXXXXX.XXXXXXXXX.XXXXXXXXXX.XXXXXXXXXX.   ",
"   .XXXXXXXX.XXXXXXXXX.XXXXXXXXXX.XXXXXXXXXX.   ",
"   .XXXXXXXX.XXXXXXXXX.XXXXXXXXXX.XXXXXXXXXX.   ",
"   .XXXXXXXX.XXXXXXXXX.XXXXXXXXXX.XXXXXXXXXX.   ",
"   .XXXXXXXX.XXXXXXXXX.XXXXXXXXXX.XXXXXXXXXX.   ",
"   .XXXXXXXX.XXXXXXXXX.XXXXXXXXXX.XXXXXXXXXX.   ",
"   .XXXXXXXX.XXXXXXXXX.XXXXXXXXXX.XXXXXXXXXX.   ",
"   .XXXXXXXX.XXXXXXXXX.XXXXXXXXXX.XXXXXXXXXX.   ",
"   .XXXXXXXX.XXXXXXXXX.XXXXXXXXXX.XXXXXXXXXX.   ",
"   .XXXXXXXX.XXXXXXXXX.XXXXXXXXXX.XXXXXXXXXX.   ",
"   .XXXXXXXX.XXXXXXXXX.XXXXXXXXXX.XXXXXXXXXX.   ",
"   .XXXXXXXX.XXXXXXXXX.XXXXXXXXXX.XXXXXXXXXX.   ",
"   .XXXXXXXX.XXXXXXXXX.XXXXXXXXXX.XXXXXXXXXX.   ",
"   .XXXXXXXX.XXXXXXXXX.XXXXXXXXXX.XXXXXXXXXX.   ",
"   .XXXXXXXX.XXXXXXXXX.XXXXXXXXXX.XXXXXXXXXX.   ",
"   .XXXXXXXX.XXXXXXXXX.XXXXXXXXXX.XXXXXXXXXX.   ",
"   .XXXXXXXX.XXXXXXXXX.XXXXXXXXXX.XXXXXXXXXX.   ",
"   .XXXXXXXX.XXXXXXXXX.XXXXXXXXXX.XXXXXXXXXX.   ",
"   .XXXXXXXX.XXXXXXXXX.XXXXXXXXXX.XXXXXXXXXX.   ",
"   .XXXXXXXX.XXXXXXXXX.XXXXXXXXXX.XXXXXXXXXX.   ",
"   .XXXXXXXX.XXXXXXXXX.XXXXXXXXXX.XXXXXXXXXX.   ",
"   .XXXXXXXX.XXXXXXXXX.XXXXXXXXXX.XXXXXXXXXX.   ",
"   .XXXXXXXX.XXXXXXXXX.XXXXXXXXXX.XXXXXXXXXX.   ",
"   .XXXXXXXX.XXXXXXXXX.XXXXXXXXXX.XXXXXXXXXX.   ",
"   .XXXXXXXX.XXXXXXXXX.XXXXXXXXXX.XXXXXXXXXX.   ",
"   ..........................................   ",
"                                                ",
"                                                ",
"                                                ",
"                                                ",
"                                                ",
"                                                ",
"                                                ",
"                                                ",
"                                                ",
"                                                "};
