/* XPM */
static const char * xpmImage16x16[] = {
"16 16 52 1",
" 	c #00003C3CCFCF",
".	c #10105151CFCF",
"X	c #20206D6DE7E7",
"o	c #8E8EBABAEFEF",
"O	c #DFDFEBEBF7F7",
"+	c #AEAECFCFF7F7",
"@	c #59599A9AE7E7",
"#	c #00004D4DCFCF",
"$	c #6969B2B2F7F7",
"%	c #28289E9EF7F7",
"&	c #10107D7DEFEF",
"*	c #00006D6DEFEF",
"=	c #5959A2A2F7F7",
"-	c #18188A8AF7F7",
";	c #08088E8EFFFF",
":	c #00008282FFFF",
">	c #20207171BEBE",
",	c #59598E8EC7C7",
"<	c #181841417979",
"1	c #717171718686",
"2	c #61617D7DA6A6",
"3	c #282820201818",
"4	c #28282C2C4141",
"5	c #303049496161",
"6	c #515155556969",
"7	c #696965656969",
"8	c #8686A6A6CFCF",
"9	c #202018182020",
"0	c #383828283838",
"q	c #303030302020",
"w	c #494945454949",
"e	c #303034344949",
"r	c #181810101818",
"t	c #282820202828",
"y	c #28282C2C3030",
"u	c #595949492828",
"i	c #101014142020",
"p	c #494938382828",
"a	c #595951512828",
"s	c #494949492828",
"d	c #414141411818",
"f	c #494951512020",
"g	c #616145452020",
"h	c #A6A669691818",
"j	c #868661612828",
"k	c #969669691818",
"l	c #868661611818",
"z	c #8E8E69691818",
"x	c #B6B679791818",
"c	c #AEAE79791818",
"v	c #AEAE71711818",
"b	c #C7C77D7D1818",
" .XoO+@.        ",
"Xo+OOO@@X#####..",
"oOO+O+++$X....XX",
"+++ooooo$$%&****",
"=@=====@@%--;&:;",
"&&&&&&::::::;;-%",
">-;;;--%%,,X%%%$",
"<>>>X,,@,112,@$o",
"3455671776671228",
"90qw6wwwe0777127",
"r3tt0y9y0tuuuww4",
"ririi99pasq3393t",
"rrr3qdqdapsddssf",
"ggggggguudffdfaa",
"hhhhjkhjllkkzkkz",
"xcchvhcxxbbbbbbb"};
