/* XPM */
static char *Text_xpm[]={
"48 48 69 2",
"Qt c None",
".e c #000000",
".t c #020202",
".E c #030303",
".v c #040404",
".C c #060606",
".6 c #070707",
".A c #090909",
".o c #0a0a0a",
".x c #0b0b0b",
".z c #0c0c0c",
".F c #0d0d0d",
".D c #101010",
".5 c #121212",
".V c #141414",
".W c #151515",
".J c #161616",
".r c #171717",
".R c #181818",
".T c #191919",
".N c #1a1a1a",
".L c #1b1b1b",
".K c #1c1c1c",
"#c c #1f1f1f",
".k c #202020",
".w c #252525",
".y c #282828",
".1 c #2a2a2a",
".H c #2c2c2c",
".P c #313131",
".S c #363636",
".s c #383838",
".9 c #393939",
".h c #3a3a3a",
"#b c #3d3d3d",
".q c #3f3f3f",
".X c #404040",
"#a c #414141",
".Z c #424242",
".n c #444444",
"#. c #474747",
".0 c #484848",
".O c #4a4a4a",
".G c #4c4c4c",
".U c #4e4e4e",
".u c #4f4f4f",
".Y c #515151",
".d c #525252",
".B c #575757",
".p c #585858",
".3 c #5b5b5b",
".b c #616161",
".# c #626262",
"## c #646464",
".2 c #656565",
".m c #676767",
".j c #686868",
".l c #707070",
".Q c #717171",
".I c #737373",
".M c #767676",
".4 c #787878",
".8 c #797979",
".i c #7c7c7c",
".g c #818181",
".f c #858585",
".c c #919191",
".a c #949494",
".7 c #969696",
"QtQtQtQtQtQtQtQtQtQtQtQtQtQtQtQtQtQtQtQtQtQtQtQtQtQtQtQtQtQtQtQtQtQtQtQtQtQtQtQtQtQtQtQtQtQtQtQt",
"QtQtQtQtQtQtQtQtQtQtQtQtQtQtQtQtQtQtQtQtQtQtQtQtQtQtQtQtQtQtQtQtQtQtQtQtQtQtQtQtQtQtQtQtQtQtQtQt",
"QtQtQtQtQtQtQtQtQtQtQtQtQtQtQtQtQtQtQtQtQtQtQtQtQtQtQtQtQtQtQtQtQtQtQtQtQtQtQtQtQtQtQtQtQtQtQtQt",
"QtQtQtQtQtQtQtQtQtQtQtQtQtQtQtQtQtQtQtQtQtQtQtQtQtQtQtQtQtQtQtQtQtQtQtQtQtQtQtQtQtQtQtQtQtQtQtQt",
"QtQtQtQtQtQtQtQtQtQtQtQtQtQtQtQtQtQtQtQtQtQtQtQtQtQtQtQtQtQtQtQtQtQtQtQtQtQtQtQtQtQtQtQtQtQtQtQt",
"QtQtQtQtQtQtQtQtQtQtQtQtQtQtQtQtQtQtQtQtQtQtQtQtQtQtQtQtQtQtQtQtQtQtQtQtQtQtQtQtQtQtQtQtQtQtQtQt",
"QtQtQtQtQtQtQtQtQtQtQtQtQtQtQtQtQtQtQtQtQtQtQtQtQt.#QtQtQtQtQtQtQtQtQtQtQtQtQtQtQtQtQtQtQtQtQtQt",
"QtQtQtQtQtQtQtQtQtQtQtQtQtQtQtQtQtQtQtQtQtQtQtQt.a.bQtQtQtQtQtQtQtQtQtQtQtQtQtQtQtQtQtQtQtQtQtQt",
"QtQtQtQtQtQtQtQtQtQtQtQtQtQtQtQtQtQtQtQtQtQtQtQt.c.d.eQtQtQtQtQtQtQtQtQtQtQtQtQtQtQtQtQtQtQtQtQt",
"QtQtQtQtQtQtQtQtQtQtQtQtQtQtQtQtQtQtQtQtQtQtQt.f.g.h.eQtQtQtQtQtQtQtQtQtQtQtQtQtQtQtQtQtQtQtQtQt",
"QtQtQtQtQtQtQtQtQtQtQtQtQtQtQtQtQtQtQtQtQtQtQt.i.j.k.e.eQtQtQtQtQtQtQtQtQtQtQtQtQtQtQtQtQtQtQtQt",
"QtQtQtQtQtQtQtQtQtQtQtQtQtQtQtQtQtQtQtQtQtQt.l.m.n.o.e.eQtQtQtQtQtQtQtQtQtQtQtQtQtQtQtQtQtQtQtQt",
"QtQtQtQtQtQtQtQtQtQtQtQtQtQtQtQtQtQtQtQtQtQt.p.q.r.e.e.eQtQtQtQtQtQtQtQtQtQtQtQtQtQtQtQtQtQtQtQt",
"QtQtQtQtQtQtQtQtQtQtQtQtQtQtQtQtQtQtQtQtQtQt.s.t.e.e.e.e.eQtQtQtQtQtQtQtQtQtQtQtQtQtQtQtQtQtQtQt",
"QtQtQtQtQtQtQtQtQtQtQtQtQtQtQtQtQtQtQtQtQt.u.vQt.e.e.e.e.eQtQtQtQtQtQtQtQtQtQtQtQtQtQtQtQtQtQtQt",
"QtQtQtQtQtQtQtQtQtQtQtQtQtQtQtQtQtQtQtQtQt.w.eQt.e.e.v.e.eQtQtQtQtQtQtQtQtQtQtQtQtQtQtQtQtQtQtQt",
"QtQtQtQtQtQtQtQtQtQtQtQtQtQtQtQtQtQtQtQt.d.eQtQtQt.e.x.e.e.eQtQtQtQtQtQtQtQtQtQtQtQtQtQtQtQtQtQt",
"QtQtQtQtQtQtQtQtQtQtQtQtQtQtQtQtQtQtQtQt.y.eQtQtQt.e.z.A.e.eQtQtQtQtQtQtQtQtQtQtQtQtQtQtQtQtQtQt",
"QtQtQtQtQtQtQtQtQtQtQtQtQtQtQtQtQtQtQt.B.eQtQtQtQt.e.C.D.e.e.eQtQtQtQtQtQtQtQtQtQtQtQtQtQtQtQtQt",
"QtQtQtQtQtQtQtQtQtQtQtQtQtQtQtQtQtQtQt.h.eQtQtQtQtQt.E.F.e.e.eQtQtQtQtQtQtQtQtQtQtQtQtQtQtQtQtQt",
"QtQtQtQtQtQtQtQtQtQtQtQtQtQtQtQtQtQtQt.F.eQtQtQtQtQt.E.o.v.e.eQtQtQtQtQtQtQtQtQtQtQtQtQtQtQtQtQt",
"QtQtQtQtQtQtQtQtQtQtQtQtQtQtQtQtQtQt.G.eQtQtQtQtQtQt.e.e.t.e.e.eQtQtQtQtQtQtQtQtQtQtQtQtQtQtQtQt",
"QtQtQtQtQtQtQtQtQtQtQtQtQtQtQtQtQtQt.k.eQtQtQtQtQtQtQt.e.e.e.e.eQtQtQtQtQtQtQtQtQtQtQtQtQtQtQtQt",
"QtQtQtQtQtQtQtQtQtQtQtQtQtQtQtQtQt.d.eQtQtQtQtQtQtQtQt.e.e.v.e.eQtQtQtQtQtQtQtQtQtQtQtQtQtQtQtQt",
"QtQtQtQtQtQtQtQtQtQtQtQtQtQtQtQtQt.H.eQtQtQtQtQtQtQtQtQt.e.x.e.e.eQtQtQtQtQtQtQtQtQtQtQtQtQtQtQt",
"QtQtQtQtQtQtQtQtQtQtQtQtQtQtQtQt.I.JQtQtQtQtQtQtQtQtQtQt.K.L.F.e.eQtQtQtQtQtQtQtQtQtQtQtQtQtQtQt",
"QtQtQtQtQtQtQtQtQtQtQtQtQtQtQtQt.M.NQtQtQtQtQtQtQtQtQtQt.O.P.L.e.e.eQtQtQtQtQtQtQtQtQtQtQtQtQtQt",
"QtQtQtQtQtQtQtQtQtQtQtQtQtQtQt.Q.b.RQtQtQtQtQtQtQtQtQtQtQt.S.T.e.e.eQtQtQtQtQtQtQtQtQtQtQtQtQtQt",
"QtQtQtQtQtQtQtQtQtQtQtQtQtQtQt.U.V.e.e.W.X.Y.Y.Y.Y.Y.u.Z.w.F.t.e.e.eQtQtQtQtQtQtQtQtQtQtQtQtQtQt",
"QtQtQtQtQtQtQtQtQtQtQtQtQtQtQt.V.e.e.e.e.e.e.e.e.e.e.e.e.e.e.e.e.e.e.eQtQtQtQtQtQtQtQtQtQtQtQtQt",
"QtQtQtQtQtQtQtQtQtQtQtQtQtQt.0.eQtQtQtQtQtQtQtQtQtQtQtQtQtQt.e.e.e.e.eQtQtQtQtQtQtQtQtQtQtQtQtQt",
"QtQtQtQtQtQtQtQtQtQtQtQtQtQt.1.eQtQtQtQtQtQtQtQtQtQtQtQtQtQt.e.e.o.e.e.eQtQtQtQtQtQtQtQtQtQtQtQt",
"QtQtQtQtQtQtQtQtQtQtQtQtQt.2.eQtQtQtQtQtQtQtQtQtQtQtQtQtQtQtQt.e.x.e.e.eQtQtQtQtQtQtQtQtQtQtQtQt",
"QtQtQtQtQtQtQtQtQtQtQtQtQt.n.eQtQtQtQtQtQtQtQtQtQtQtQtQtQtQtQt.E.o.v.e.eQtQtQtQtQtQtQtQtQtQtQtQt",
"QtQtQtQtQtQtQtQtQtQtQtQt.3.e.eQtQtQtQtQtQtQtQtQtQtQtQtQtQtQtQt.e.e.t.e.e.eQtQtQtQtQtQtQtQtQtQtQt",
"QtQtQtQtQtQtQtQtQtQtQtQt.h.eQtQtQtQtQtQtQtQtQtQtQtQtQtQtQtQtQtQt.e.e.e.e.eQtQtQtQtQtQtQtQtQtQtQt",
"QtQtQtQtQtQtQtQtQtQtQtQt.T.eQtQtQtQtQtQtQtQtQtQtQtQtQtQtQtQtQtQt.e.e.o.e.e.eQtQtQtQtQtQtQtQtQtQt",
"QtQtQtQtQtQtQtQtQtQtQt.4.eQtQtQtQtQtQtQtQtQtQtQtQtQtQtQtQtQtQtQtQt.5.T.6.e.eQtQtQtQtQtQtQtQtQtQt",
"QtQtQtQtQtQtQtQtQtQt.7.l.eQtQtQtQtQtQtQtQtQtQtQtQtQtQtQtQtQtQtQtQt.Z.P.V.e.e.eQtQtQtQtQtQtQtQtQt",
"QtQtQtQtQtQtQtQtQtQt.8.9.eQtQtQtQtQtQtQtQtQtQtQtQtQtQtQtQtQtQtQtQt#..J.e.e.e.eQtQtQtQtQtQtQtQtQt",
"QtQtQtQtQtQtQtQt###a.v.e.e.eQtQtQtQtQtQtQtQtQtQtQtQtQtQtQtQtQtQt#b.e.e.e.e.e.e.e.eQtQtQtQtQtQtQt",
"QtQtQtQtQtQt.K.t.e.e.e.e.e.e.e.e.eQtQtQtQtQtQtQtQtQtQtQtQt#c.D.e.e.e.e.e.e.e.e.e.e.e.eQtQtQtQtQt",
"QtQtQtQtQtQtQtQtQtQtQtQtQtQtQtQtQtQtQtQtQtQtQtQtQtQtQtQtQtQtQtQtQtQtQtQtQtQtQtQtQtQtQtQtQtQtQtQt",
"QtQtQtQtQtQtQtQtQtQtQtQtQtQtQtQtQtQtQtQtQtQtQtQtQtQtQtQtQtQtQtQtQtQtQtQtQtQtQtQtQtQtQtQtQtQtQtQt",
"QtQtQtQtQtQtQtQtQtQtQtQtQtQtQtQtQtQtQtQtQtQtQtQtQtQtQtQtQtQtQtQtQtQtQtQtQtQtQtQtQtQtQtQtQtQtQtQt",
"QtQtQtQtQtQtQtQtQtQtQtQtQtQtQtQtQtQtQtQtQtQtQtQtQtQtQtQtQtQtQtQtQtQtQtQtQtQtQtQtQtQtQtQtQtQtQtQt",
"QtQtQtQtQtQtQtQtQtQtQtQtQtQtQtQtQtQtQtQtQtQtQtQtQtQtQtQtQtQtQtQtQtQtQtQtQtQtQtQtQtQtQtQtQtQtQtQt",
"QtQtQtQtQtQtQtQtQtQtQtQtQtQtQtQtQtQtQtQtQtQtQtQtQtQtQtQtQtQtQtQtQtQtQtQtQtQtQtQtQtQtQtQtQtQtQtQt"};
